<?xml version="1.0" encoding="UTF-8"?>
<svg id="Layer_1" data-name="Layer 1" xmlns="http://www.w3.org/2000/svg" viewBox="0 0 106.61 95.95">
  <defs>
    <style>
      .cls-1 {
        fill: #bebeb2;
      }

      .cls-2 {
        fill: #fefefe;
      }
    </style>
  </defs>
  <path class="cls-2" d="M83.35,95.95c1.74-5.24.81-7.66-.32-11.29-.57-1.85.13-4.13-.73-5.95-3.09-6.54-15.47-15.77-22.69-15.23,8.1-3.02,15.9-1.36,24-2.51,3.27-.47,5.13-4.91,7.34-7.07,4.87-4.74,9.43-9.77,11.64-16.35,4.46-13.31.51-22.78,4.02-34.84-3.8-1.86-7.87-2.08-12.03-1.68-14.08,1.35-35.31-3.4-59.05.62C12.72,5.51,23.45,3.35,0,1.06l1.93,28.73c.88,13.06,7.75,25.14,19.56,30.87,6.52,3.17,13.86,2.47,21.09,4.51-4.32,1.26-9.19,1.96-12.6,5.37l-12.75,12.77c-2.6,2.61-5.18,8.76-2.26,11.03,21.39,1.53,30.86-1.34,53.06.89,5.19.52,10.38-.46,15.32.72Z"/>
  <path class="cls-1" d="M83.35,95.95c-4.94-1.18-10.13-.2-15.32-.72-22.2-2.23-31.67.64-53.06-.89-2.92-2.27-.34-8.42,2.26-11.03l12.75-12.77c3.41-3.41,8.29-4.11,12.6-5.37-7.23-2.05-14.57-1.34-21.09-4.51C9.69,54.92,2.81,42.84,1.93,29.79L0,1.06c23.45,2.29,12.72,4.46,35.54.6,23.74-4.02,44.96.73,59.05-.62,4.17-.4,8.23-.19,12.03,1.68-3.51,12.06.44,21.53-4.02,34.84-2.2,6.58-6.77,11.61-11.64,16.35-2.22,2.16-4.07,6.61-7.34,7.07-8.09,1.15-15.89-.51-24,2.51,7.22-.54,19.59,8.69,22.69,15.23.86,1.82.15,4.11.73,5.95,1.12,3.63,2.06,6.05.32,11.29Z"/>
</svg>