<?xml version="1.0" encoding="UTF-8"?>
<svg id="Layer_1" data-name="Layer 1" xmlns="http://www.w3.org/2000/svg" viewBox="0 0 66.76 96.02">
  <defs>
    <style>
      .cls-1 {
        fill: #bfbfb2;
      }
    </style>
  </defs>
  <path class="cls-1" d="M52.4,92.19c-14.99,5.05-31.68,5.29-45.93-.41-3.24-1.3-5.24-4.41-6.01-6.52-1.14-3.13.02-6.61,1.88-9.23,7.36-10.37,20.84-4.29,23.6-7.2,2.35-2.48-1.01-5.36-3.58-5.99-7.23-1.79-21.43-4.34-19.78-14.05s19.74-3.48,21.15-12C25.12,28.34.68,22.59,3.76,8.84,6.69-4.19,45.13-.08,56.23,3.98c7.44,2.72,12.26,9.81,9.94,17.66-2.21,7.47-14.13,8.44-21.8,12.71-2.24,1.25-5.31,4.23-3.59,6.83,3.34,5.03,15.9,3.58,21.98,11.63,1.79,2.37,2.15,5.33,1.06,7.82-3.26,7.43-20.49,1.94-22.21,8.15-.4,1.45.59,3.29,2.31,3.87l8.95,3.06c3.54,1.21,5.3,4.43,5.6,7.68.31,3.45-1.67,7.31-6.07,8.8Z"/>
</svg>