<?xml version="1.0" encoding="UTF-8"?>
<svg id="svg120236" xmlns="http://www.w3.org/2000/svg" viewBox="0 0 237.78 102.68">
  <defs>
    <style>
      .cls-1 {
        fill: none;
      }
    </style>
  </defs>
  <path class="cls-1" d="M158.95,80.94c0-.34-.14-.63-.42-.87-.28-.24-.62-.36-1.01-.36h-2.14v2.45h2.14c.39,0,.73-.12,1.01-.36.28-.24.42-.53.42-.86Z"/>
  <path class="cls-1" d="M149.25,79.63c-.84,0-1.55.24-2.12.73-.57.48-.86,1.08-.86,1.77s.29,1.29.86,1.77c.57.48,1.28.73,2.12.73s1.55-.24,2.12-.73.86-1.08.86-1.77-.29-1.29-.86-1.77-1.28-.73-2.12-.73Z"/>
  <path class="cls-1" d="M124.02,81.3c-.56,0-1.04.16-1.43.49-.39.33-.58.72-.58,1.19s.19.87.58,1.19c.39.33.86.49,1.43.49s1.04-.16,1.43-.49.58-.72.58-1.19-.19-.87-.58-1.19-.86-.49-1.43-.49Z"/>
  <polygon class="cls-1" points="186.68 83.08 189.56 83.08 188.12 79.9 186.68 83.08"/>
  <path class="cls-1" d="M181.79,58.14c-1.31-1.15-2.95-1.72-4.92-1.72h-5.08v12.21h5.08v-.08c2.05,0,3.69-.57,4.92-1.72,1.31-1.15,1.97-2.62,1.97-4.34s-.66-3.2-1.97-4.34Z"/>
  <path class="cls-1" d="M202.53,66.91c1.48,1.23,3.28,1.8,5.49,1.8s4.02-.57,5.49-1.8c1.48-1.23,2.21-2.71,2.21-4.51s-.74-3.28-2.21-4.51c-1.48-1.23-3.28-1.8-5.49-1.8s-4.02.57-5.49,1.8c-1.48,1.23-2.21,2.71-2.21,4.51s.74,3.28,2.21,4.51Z"/>
  <polygon class="cls-1" points="196.67 83.08 199.55 83.08 198.11 79.9 196.67 83.08"/>
  <path class="cls-1" d="M118.18,79.72h-1.84v2.62h1.84c.44,0,.81-.12,1.1-.37s.43-.56.43-.94-.14-.69-.43-.94c-.29-.25-.65-.37-1.1-.37Z"/>
  <path class="cls-1" d="M125.39,36.66c.74-.57,1.07-1.39,1.07-2.3s-.33-1.72-1.07-2.3c-.74-.57-1.64-.9-2.71-.9h-4.59v6.39h4.59c1.07,0,1.97-.33,2.71-.9Z"/>
  <path class="cls-1" d="M45.49,43.36c3.74-6.25,6.98-16.56,1.1-30.18-3.37-6.53-6.21-8.81-7.8-8.81-.15,0-.29.02-.42.06-3.57,1.09-8.29,13.88-6.52,51.55,5.5-2.82,10.43-7.28,13.63-12.62Z"/>
  <path class="cls-1" d="M32.89,71.91c.63,7.74,1.48,16.29,2.6,25.72.03.22.07.38.11.52,1.48-1.04,4.46-6,3.93-12.8-.46-5.54-3.41-10.42-6.64-13.44Z"/>
  <path class="cls-1" d="M137.03,41.74c1.48,1.23,3.28,1.8,5.49,1.8s4.02-.57,5.49-1.8c1.48-1.23,2.21-2.71,2.21-4.51s-.74-3.28-2.21-4.51c-1.48-1.23-3.28-1.8-5.49-1.8s-4.02.57-5.49,1.8c-1.48,1.23-2.21,2.71-2.21,4.51s.74,3.28,2.21,4.51Z"/>
  <path class="cls-1" d="M225.06,80.94c0-.34-.14-.63-.42-.87-.28-.24-.62-.36-1.01-.36h-2.14v2.45h2.14c.39,0,.73-.12,1.01-.36.28-.24.42-.53.42-.86Z"/>
  <polygon class="cls-1" points="214.8 83.08 217.68 83.08 216.24 79.9 214.8 83.08"/>
  <path class="cls-1" d="M216.71,34.2c0-.82-.33-1.56-1.07-2.13-.66-.57-1.56-.9-2.54-.9h-5.33v6.07h5.33c.98,0,1.8-.33,2.54-.9.66-.57,1.07-1.31,1.07-2.13Z"/>
  <path d="M95.62,61.29c-.61-1.03-1.94-1.38-2.98-.76-4.09,2.42-13.09,5.18-19.45,3.32-2.79-.8-4.74-2.35-5.95-4.72-.15-.3-.25-.56-.33-.76-.22-.54-.68-1.67-2.01-1.87-.82-.1-1.82.36-2.29,1.04-4.05,5.81-10.01,8.59-11.58,7.75-.3-.15-.61-1.34.23-3.84,2.15-4.42,5.69-6.51,8.29-7,1.16-.22,2.01-.1,2.45.06.18.25.41.47.66.62.94.58,2.35.44,3.03-.42.63-.8.47-2.11-.17-2.92-.08-.11-.17-.2-.28-.3-1.47-1.33-3.81-1.82-6.5-1.32-3.65.68-7,2.96-9.51,6.36-.1.07-.24.05-.33.14-6.03,6.08-11.76,8.74-15.87,9.9-.2-.13-.39-.25-.59-.36-.13-1.9-.25-3.73-.35-5.52,6.9-3.08,13.1-8.44,17.1-15.11,6.04-10.06,6.52-22.19,1.3-34.27C46.04,2.63,41.51-1.08,37.1.27c-8.03,2.45-11.27,22.88-9.5,57.52-2.13.73-4.28,1.19-6.42,1.38-11.4.96-16.25-.18-18.13-.94-.02,0-.16-.06-.18-.07-1.1-.4-2.29.14-2.73,1.26-.43,1.1.16,2.38,1.26,2.83,4.97,2.04,13.71,1.82,20.14,1.24,2.11-.18,4.23-.58,6.31-1.2.04.74.09,1.49.14,2.24-.32-.06-.64-.1-.96-.12-2.46.18-3.81,1.95-3.88,3.63-.07,1.89,1.32,3.42,3.62,3.75.44.03,1.03.02,1.75-.02.66,8.2,1.54,17.03,2.66,26.46.5,3.31,2.37,4.46,4.11,4.46.15,0,.3,0,.45-.02,4.27-.49,8.84-8.46,8.12-17.64-.49-5.96-3.27-11.36-6.87-15.14,2.84-1.08,6.09-2.83,9.51-5.38.11,2.76,1.47,4.13,2.57,4.69.78.4,1.67.58,2.61.58,3.93,0,8.94-3.19,12.53-7.23,1.79,2.67,4.4,4.52,7.77,5.5,8.08,2.33,18.31-1.07,22.87-3.77,1.03-.61,1.37-1.94.76-2.97ZM38.37,4.42c.13-.04.27-.06.42-.06,1.59,0,4.43,2.28,7.8,8.81,5.88,13.63,2.64,23.94-1.1,30.18-3.2,5.34-8.13,9.8-13.63,12.62-1.77-37.67,2.94-50.46,6.52-51.55ZM39.53,85.35c.53,6.8-2.45,11.76-3.93,12.8-.04-.14-.08-.3-.11-.52-1.12-9.43-1.97-17.98-2.6-25.72,3.23,3.02,6.18,7.9,6.64,13.44Z"/>
  <path d="M95.88,66.28c-1.27,1.09-1.53,2.87-.58,3.97.95,1.1,2.74,1.1,4.01,0,1.27-1.09,1.53-2.87.58-3.97-.95-1.1-2.74-1.1-4.01,0Z"/>
  <path d="M129,65.27c-.08-.33-.16-.57-.33-.82-.16-.25-.33-.41-.57-.66s-.49-.41-.66-.57c-.25-.16-.49-.33-.9-.49-.33-.16-.66-.33-.9-.41-.25-.08-.57-.16-1.07-.33-.49-.16-.82-.33-1.07-.33-.25-.08-.57-.16-1.15-.33-1.48-.41-2.54-.74-3.2-1.15-.57-.41-.9-.9-.9-1.64s.33-1.31.98-1.72c.66-.41,1.56-.66,2.62-.66,2.13,0,3.69.9,4.51,2.54l2.21-1.07c-.57-1.07-1.48-1.89-2.62-2.54s-2.54-.98-4.1-.98c-1.72,0-3.2.41-4.43,1.23-1.23.82-1.8,1.97-1.8,3.36,0,.57.08,1.07.41,1.56.33.49.57.9.9,1.15.33.25.82.57,1.48.82.66.25,1.23.41,1.64.57.41.08,1.07.25,1.89.49,1.72.41,2.87.82,3.61,1.23.74.33,1.07.98,1.07,1.72s-.33,1.39-1.07,1.8c-.74.41-1.72.66-3.12.66-2.79,0-4.59-.98-5.33-2.95l-2.3,1.07c.57,1.23,1.48,2.21,2.79,2.95,1.31.74,2.87,1.07,4.75,1.07v.08c1.97,0,3.69-.41,4.92-1.23,1.23-.9,1.89-2.05,1.89-3.44,0-.33-.08-.66-.16-.98Z"/>
  <polygon points="131.29 56.33 137.11 56.33 137.11 70.6 139.74 70.6 139.74 56.33 145.56 56.33 145.56 54.28 131.29 54.28 131.29 56.33"/>
  <path d="M151.79,54.28h-2.62v10.82c0,1.72.66,3.12,2.05,4.18,1.31,1.07,3.2,1.56,5.33,1.56s3.94-.49,5.33-1.56h.16c1.39-1.07,2.05-2.46,2.05-4.18v-10.82h-2.62v10.74c0,1.15-.41,2.05-1.23,2.71-.9.66-2.05.98-3.61.98s-2.79-.33-3.61-.98c-.82-.66-1.23-1.56-1.23-2.71v-10.74Z"/>
  <path d="M183.59,56.66c-1.8-1.56-4.02-2.38-6.72-2.38h-7.71v16.23h7.71c2.7,0,4.92-.82,6.72-2.38,1.8-1.56,2.7-3.52,2.7-5.74s-.9-4.18-2.7-5.74ZM181.79,66.82c-1.23,1.15-2.87,1.72-4.92,1.72v.08h-5.08v-12.21h5.08c1.97,0,3.61.57,4.92,1.72,1.31,1.15,1.97,2.62,1.97,4.34s-.66,3.2-1.97,4.34Z"/>
  <rect x="190.64" y="54.28" width="2.62" height="16.23"/>
  <path d="M197.69,62.4c0,2.38.98,4.34,2.95,5.98,1.97,1.64,4.43,2.46,7.3,2.46s5.33-.82,7.3-2.46c1.97-1.64,2.95-3.61,2.95-5.98s-.98-4.34-2.95-5.98c-1.97-1.64-4.43-2.46-7.3-2.46s-5.33.82-7.3,2.46c-1.97,1.64-2.95,3.61-2.95,5.98ZM202.53,57.89c1.48-1.23,3.28-1.8,5.49-1.8s4.02.57,5.49,1.8c1.48,1.23,2.21,2.71,2.21,4.51s-.74,3.28-2.21,4.51c-1.48,1.23-3.28,1.8-5.49,1.8s-4.02-.57-5.49-1.8c-1.48-1.23-2.21-2.71-2.21-4.51s.74-3.28,2.21-4.51Z"/>
  <path d="M118.1,39.53h4.59c1.89,0,3.36-.49,4.59-1.48,1.23-.98,1.8-2.13,1.8-3.69s-.57-2.79-1.8-3.77c-1.23-.98-2.79-1.48-4.59-1.48h-7.21v16.23h2.62v-5.82ZM118.1,31.17h4.59c1.07,0,1.97.33,2.71.9.74.57,1.07,1.39,1.07,2.3s-.33,1.72-1.07,2.3c-.74.57-1.64.9-2.71.9h-4.59v-6.39Z"/>
  <path d="M135.15,43.22c1.97,1.64,4.43,2.46,7.3,2.46s5.33-.82,7.3-2.46c1.97-1.64,2.95-3.61,2.95-5.98s-.98-4.34-2.95-5.98c-1.97-1.64-4.43-2.46-7.3-2.46s-5.33.82-7.3,2.46c-1.97,1.64-2.95,3.61-2.95,5.98s.98,4.34,2.95,5.98ZM137.03,32.72c1.48-1.23,3.28-1.8,5.49-1.8s4.02.57,5.49,1.8c1.48,1.23,2.21,2.71,2.21,4.51s-.74,3.28-2.21,4.51c-1.48,1.23-3.28,1.8-5.49,1.8s-4.02-.57-5.49-1.8c-1.48-1.23-2.21-2.71-2.21-4.51s.74-3.28,2.21-4.51Z"/>
  <polygon points="160.23 45.43 162.85 45.43 162.85 31.17 168.67 31.17 168.67 29.12 154.41 29.12 154.41 31.17 160.23 31.17 160.23 45.43"/>
  <polygon points="176.71 45.43 179.33 45.43 179.33 31.17 185.15 31.17 185.15 29.12 170.89 29.12 170.89 31.17 176.71 31.17 176.71 45.43"/>
  <polygon points="200.73 43.38 191.54 43.38 191.54 38.3 199.91 38.3 199.91 36.25 191.54 36.25 191.54 31.25 200.64 31.25 200.64 29.2 188.92 29.2 188.92 45.43 200.73 45.43 200.73 43.38"/>
  <path d="M218.1,37.15c.74-.82,1.15-1.8,1.15-2.87,0-1.39-.57-2.62-1.8-3.61-1.23-.98-2.62-1.48-4.34-1.48h-7.95v16.23h2.62v-6.23h4.67l4.43,6.23h2.95l-4.67-6.48c1.23-.33,2.21-.9,2.95-1.8ZM207.78,37.23v-6.07h5.33c.98,0,1.89.33,2.54.9.74.57,1.07,1.31,1.07,2.13s-.41,1.56-1.07,2.13c-.74.57-1.56.9-2.54.9h-5.33Z"/>
  <polygon points="228.11 45.35 230.73 45.35 230.73 38.79 237.78 29.12 234.91 29.12 229.5 36.74 224.09 29.12 221.14 29.12 228.11 38.79 228.11 45.35"/>
  <path d="M118.18,79.16h-2.55v5.95h.71v-2.21h1.84c.64,0,1.17-.18,1.6-.54.43-.36.64-.8.64-1.33s-.21-.98-.64-1.33c-.43-.36-.96-.54-1.6-.54ZM119.28,81.96c-.29.25-.65.37-1.1.37h-1.84v-2.62h1.84c.44,0,.81.12,1.1.37.29.25.43.56.43.94s-.14.69-.43.94Z"/>
  <path d="M125.93,81.39c-.52-.43-1.15-.64-1.9-.64s-1.38.21-1.9.64c-.52.43-.78.96-.78,1.58s.26,1.16.78,1.58c.52.43,1.15.64,1.9.64s1.38-.21,1.9-.64c.52-.43.78-.96.78-1.58s-.26-1.16-.78-1.58ZM125.45,84.17c-.39.33-.86.49-1.43.49s-1.04-.16-1.43-.49c-.39-.33-.58-.72-.58-1.19s.19-.87.58-1.19c.39-.33.86-.49,1.43-.49s1.04.16,1.43.49.58.72.58,1.19-.19.87-.58,1.19Z"/>
  <path d="M129.01,81.56v-.71h-.67v4.25h.67v-2.36c0-.49.15-.84.46-1.07s.69-.34,1.15-.34v-.54c-.76,0-1.3.26-1.61.77Z"/>
  <polygon points="135.21 85.1 135.92 85.1 135.92 82.47 139.08 82.47 139.08 81.91 135.92 81.91 135.92 79.72 139.23 79.72 139.23 79.16 135.21 79.16 135.21 85.1"/>
  <polygon points="141.68 79.16 140.97 79.16 140.97 85.1 144.94 85.1 144.94 84.54 141.68 84.54 141.68 79.16"/>
  <path d="M149.25,79.05c-1.03,0-1.91.3-2.62.9s-1.07,1.32-1.07,2.18.36,1.58,1.07,2.18,1.59.9,2.62.9,1.91-.3,2.62-.9c.71-.6,1.07-1.32,1.07-2.18s-.36-1.58-1.07-2.18c-.71-.6-1.59-.9-2.62-.9ZM151.37,83.9c-.57.48-1.28.73-2.12.73s-1.55-.24-2.12-.73c-.57-.48-.86-1.08-.86-1.77s.29-1.29.86-1.77c.57-.48,1.28-.73,2.12-.73s1.55.24,2.12.73.86,1.08.86,1.77-.29,1.29-.86,1.77Z"/>
  <path d="M159.24,82.02c.29-.31.43-.67.43-1.08,0-.49-.21-.91-.63-1.26-.42-.35-.92-.52-1.51-.52h-2.86v5.95h.71v-2.38h2l1.67,2.38h.82l-1.74-2.46c.45-.11.82-.32,1.11-.63ZM155.39,82.16v-2.45h2.14c.39,0,.73.12,1.01.36.28.24.42.53.42.87s-.14.62-.42.86c-.28.24-.62.36-1.01.36h-2.14Z"/>
  <polygon points="162.12 82.38 165.28 82.38 165.28 81.82 162.12 81.82 162.12 79.72 165.53 79.72 165.53 79.16 161.4 79.16 161.4 85.1 165.58 85.1 165.58 84.54 162.12 84.54 162.12 82.38"/>
  <polygon points="171.9 83.99 167.94 79.16 167.32 79.16 167.32 85.1 168.03 85.1 168.03 80.26 172.01 85.1 172.62 85.1 172.62 79.16 171.9 79.16 171.9 83.99"/>
  <path d="M178.09,79.63c.53,0,1.02.11,1.46.32.44.22.77.5,1,.87l.63-.31c-.3-.45-.72-.8-1.27-1.07-.55-.26-1.16-.4-1.82-.4-1.08,0-1.97.3-2.68.89s-1.06,1.32-1.06,2.18.35,1.59,1.06,2.18,1.6.89,2.68.89c.66,0,1.27-.13,1.82-.4s.98-.62,1.27-1.07l-.63-.3c-.22.36-.56.65-1,.87-.44.22-.93.32-1.46.32-.89,0-1.62-.24-2.18-.72-.56-.48-.85-1.07-.85-1.78s.28-1.29.85-1.78,1.29-.72,2.18-.72Z"/>
  <rect x="182.86" y="79.16" width=".71" height="5.95"/>
  <path d="M187.75,79.16l-2.74,5.95h.75l.66-1.46h3.39l.66,1.46h.75l-2.74-5.95h-.73ZM186.68,83.08l1.44-3.18,1.44,3.18h-2.88Z"/>
  <path d="M197.74,79.16l-2.74,5.95h.75l.66-1.46h3.39l.66,1.46h.75l-2.74-5.95h-.73ZM196.67,83.08l1.44-3.18,1.44,3.18h-2.88Z"/>
  <polygon points="203.36 79.16 202.64 79.16 202.64 85.1 206.62 85.1 206.62 84.54 203.36 84.54 203.36 79.16"/>
  <polygon points="209.82 84.3 207.6 79.16 206.82 79.16 209.46 85.1 210.19 85.1 212.82 79.16 212.05 79.16 209.82 84.3"/>
  <path d="M215.87,79.16l-2.74,5.95h.75l.66-1.46h3.39l.66,1.46h.75l-2.74-5.95h-.73ZM214.8,83.08l1.44-3.18,1.44,3.18h-2.88Z"/>
  <path d="M225.34,82.02c.29-.31.43-.67.43-1.08,0-.49-.21-.91-.63-1.26-.42-.35-.92-.52-1.51-.52h-2.86v5.95h.71v-2.38h2l1.67,2.38h.82l-1.74-2.46c.45-.11.82-.32,1.11-.63ZM221.49,82.16v-2.45h2.14c.39,0,.73.12,1.01.36.28.24.42.53.42.87s-.14.62-.42.86c-.28.24-.62.36-1.01.36h-2.14Z"/>
  <polygon points="228.22 82.38 231.38 82.38 231.38 81.82 228.22 81.82 228.22 79.72 231.63 79.72 231.63 79.16 227.5 79.16 227.5 85.1 231.68 85.1 231.68 84.54 228.22 84.54 228.22 82.38"/>
  <polygon points="237.5 79.72 237.5 79.16 233.11 79.16 233.11 79.72 236.7 79.72 233.01 84.54 233.01 85.1 237.6 85.1 237.6 84.54 233.81 84.54 237.5 79.72"/>
</svg>