<?xml version="1.0" encoding="UTF-8"?>
<svg data-bbox="0.03 0.1 15.9 16.45" viewBox="0 0 15.96 16.65" xmlns="http://www.w3.org/2000/svg" data-type="shape">
    <g>
        <path d="M4.34 16.55c-.21 0-.44-.14-.5-.54-.14-1.15-.25-2.23-.33-3.23h-.23c-.27-.04-.44-.22-.43-.44 0-.2.17-.42.47-.45.04 0 .09 0 .13.01 0-.1-.01-.19-.02-.29-.25.08-.51.13-.77.15-.79.07-1.87.1-2.46-.15-.13-.05-.21-.21-.15-.34.05-.13.2-.2.33-.15H.4c.23.09.82.23 2.22.11.26-.02.53-.08.79-.17-.21-4.22.18-6.71 1.16-7.01.55-.17 1.09.29 1.63 1.35.63 1.47.58 2.95-.16 4.17-.49.82-1.24 1.47-2.09 1.85.01.22.03.45.04.68.02.01.05.03.07.05.5-.14 1.19-.47 1.92-1.21.1-.1.27-.1.37 0s.1.27 0 .37c-.66.67-1.3 1.04-1.83 1.24.44.46.78 1.12.84 1.85.09 1.12-.46 2.09-.98 2.15h-.06Zm-.3-3.76c.08.95.18 1.99.32 3.14 0 .03 0 .05.01.07.18-.12.55-.73.48-1.57-.06-.68-.42-1.28-.81-1.64m.73-8.24h-.05c-.44.13-1.01 1.69-.8 6.29.67-.35 1.28-.89 1.67-1.55.46-.76.85-2.02.13-3.68-.41-.8-.76-1.08-.95-1.08Z"/>
        <path d="M6.34 12.53c-.12 0-.22-.02-.32-.07-.2-.1-.48-.38-.22-1.14.31-.64.83-1.07 1.41-1.17.32-.06.61 0 .79.17.1.09.13.27.05.38s-.26.12-.37.05a.3.3 0 0 1-.08-.07.53.53 0 0 0-.29-.01c-.32.06-.75.31-1.02.86-.1.3-.07.45-.03.47.2.09.92-.23 1.41-.94.06-.08.17-.14.27-.13.16.02.22.16.25.22.01.02.02.05.04.09.15.29.39.48.73.58.77.22 1.88-.11 2.38-.4.13-.07.29-.03.36.09s.03.29-.09.36c-.55.33-1.8.74-2.79.46a1.7 1.7 0 0 1-.95-.67c-.44.5-1.05.88-1.53.88Z"/>
        <path d="M12.207 12.122c.116.134.084.351-.07.484s-.374.134-.49 0-.083-.35.071-.484.374-.134.49 0"/>
        <path d="M3.44 2.5s-.06.04-.09.04-.06-.01-.08-.03a.08.08 0 0 1-.02-.08c0-.03.02-.06.05-.08s.06-.04.09-.04.06.01.08.03.03.05.02.08c0 .03-.02.06-.05.08"/>
        <path d="M4.48.98c.12-.06.23-.08.34-.06s.19.08.24.17.05.19 0 .29c-.04.1-.12.19-.24.25l-.29.15.19.37-.17.09-.54-1.03.45-.24Zm.28.53c.07-.04.12-.09.14-.15.03-.06.02-.12 0-.18-.03-.06-.08-.09-.14-.11s-.13 0-.2.03l-.29.15.21.4.29-.15Z"/>
        <path d="M6.75 1.22a.855.855 0 0 1-1 .28.53.53 0 0 1-.32-.35c-.04-.16-.01-.32.09-.47s.26-.25.45-.31.38-.04.55.03.27.19.32.35c.04.16.01.32-.09.47m-.9.14c.12.06.26.06.41.02s.26-.12.34-.23.1-.23.07-.35a.4.4 0 0 0-.24-.27C6.31.47 6.17.47 6.02.51s-.26.12-.34.23-.1.23-.07.35a.4.4 0 0 0 .24.27"/>
        <path d="M8.03.1v.15l-.41.03.07 1.01h-.18l-.07-1-.41.03V.17L8.04.1Z"/>
        <path d="M9.34.2v.14L8.91.3l-.1 1.01-.18-.02.1-1.01-.41-.04V.1l1.03.1Z"/>
        <path d="m9.68 1.31.63.17-.04.14-.81-.22.3-1.12.8.22-.04.14L9.9.47l-.09.34.57.16-.04.14-.57-.16-.1.35Z"/>
        <path d="m11.3 2.09-.09-.54-.3-.14-.19.4-.17-.08.5-1.05.51.24c.11.05.19.13.24.23s.05.2 0 .29c-.03.07-.09.12-.16.15-.08.03-.16.04-.25.03l.1.56zm-.15-1.2-.19.39.34.16c.06.03.13.04.19.02s.11-.05.13-.11c.03-.05.03-.11 0-.17a.27.27 0 0 0-.13-.13z"/>
        <path d="m13.18 1.97-.81.26-.28.38-.15-.11.28-.38v-.85l.17.12v.67l.62-.21z"/>
        <path d="M13.32 3.84a.74.74 0 0 1-.15-.31c-.02-.11 0-.2.04-.28l.16.08c-.08.13-.05.27.07.43.06.08.12.12.18.14s.11.01.15-.02c.04-.04.06-.08.05-.14s-.04-.14-.09-.25c-.02-.06-.04-.1-.05-.13s-.03-.07-.04-.12-.02-.09-.02-.12 0-.06.02-.1.04-.07.07-.09c.08-.06.17-.08.27-.05s.19.09.27.19c.07.09.11.18.13.27.01.09 0 .18-.03.26l-.16-.08c.05-.12.04-.24-.06-.36q-.075-.09-.15-.12a.14.14 0 0 0-.14.02c-.04.03-.06.07-.05.12 0 .05.03.13.08.23.02.04.03.06.03.08s.02.04.03.07.02.06.03.07.01.04.02.07c0 .03.01.05.01.07v.06c0 .02 0 .04-.01.06 0 .02-.02.03-.03.05a.12.12 0 0 1-.05.05c-.08.06-.17.08-.27.05s-.2-.11-.29-.22Z"/>
        <path d="m15.21 4.63-.13.07-.2-.37-.89.49-.09-.16.89-.49-.2-.36.13-.07z"/>
        <path d="M14.65 6.22a.64.64 0 0 1-.23-.33c-.05-.15-.05-.28-.01-.4s.12-.2.24-.23l.73-.24.06.18-.73.24c-.08.03-.13.07-.16.15-.03.07-.02.16.01.26.03.11.08.18.15.22.06.04.13.05.21.02l.72-.24.06.18-.73.24c-.12.04-.23.02-.33-.05Z"/>
        <path d="M15.89 7.16c.02.19-.02.36-.12.49s-.23.21-.39.23-.3-.03-.43-.15a.68.68 0 0 1-.21-.46l-.06-.55 1.15-.12.06.55Zm-1 .1c.01.14.07.26.16.34s.2.12.32.11.22-.07.29-.17q.105-.15.09-.36l-.04-.36-.86.09.04.36Z"/>
        <path d="M15.93 8.27v.19l-1.17-.06v-.19z"/>
        <path d="M14.67 9.93c-.08-.16-.11-.34-.06-.54s.14-.36.28-.47.3-.15.46-.12c.16.04.29.13.37.3.08.16.11.34.06.54-.04.2-.14.36-.28.47s-.3.15-.46.12a.5.5 0 0 1-.37-.3m.3-.86a.55.55 0 0 0-.21.35c-.03.15-.02.29.04.41s.16.19.28.22.24 0 .35-.08.18-.2.21-.35.02-.29-.05-.41-.16-.19-.28-.22-.24 0-.35.09Z"/>
        <path d="M14.5 11.17s.04-.06.07-.07.06-.01.09 0 .04.04.05.07c0 .03 0 .06-.01.1-.02.03-.04.06-.07.07s-.06.01-.08 0c-.03-.01-.04-.04-.05-.07s0-.06.01-.1Z"/>
    </g>
</svg>
